<svg id="Layer_1" data-name="Layer 1" xmlns="http://www.w3.org/2000/svg" xmlns:xlink="http://www.w3.org/1999/xlink" viewBox="0 0 970 404"><defs><style>.cls-1{fill:url(#linear-gradient);}.cls-2{stroke:#fff;stroke-miterlimit:10;stroke-width:11px;fill:url(#linear-gradient-2);}.cls-3{fill:#fff;}</style><linearGradient id="linear-gradient" y1="202" x2="970" y2="202" gradientUnits="userSpaceOnUse"><stop offset="0" stop-color="#39b54a"/><stop offset="0.13" stop-color="#37b04f"/><stop offset="0.28" stop-color="#33a25d"/><stop offset="0.44" stop-color="#2b8a75"/><stop offset="0.61" stop-color="#216996"/><stop offset="0.79" stop-color="#143ec1"/><stop offset="0.96" stop-color="#030bf4"/><stop offset="1" stop-color="blue"/></linearGradient><linearGradient id="linear-gradient-2" x1="50.42" y1="200" x2="919.58" y2="200" xlink:href="#linear-gradient"/></defs><rect class="cls-1" width="970" height="404" rx="98.44"/><rect class="cls-2" x="50.42" y="42" width="869.16" height="316" rx="98.44"/><path class="cls-3" d="M239.22,668.19v-243H292q27,0,42.75,8.25a47.35,47.35,0,0,1,22.5,24.75q6.75,16.5,6.75,41.1v89.4q0,25.8-6.75,43.5T335.37,659q-15.15,9.15-40.65,9.15Zm33.9-24.3h19.2q18.6,0,26.4-7.2t9.45-21a286.18,286.18,0,0,0,1.65-33.3v-78.9q0-18.9-2.4-30.6t-10.5-17.1q-8.1-5.4-25.5-5.4h-18.3Z" transform="translate(-55 -336)"/><path class="cls-3" d="M424,668.19V450.39h-41.1v-25.2h114.9v25.2h-39.9v217.8Z" transform="translate(-55 -336)"/><path class="cls-3" d="M582.12,670.89q-25.82,0-40-10.8T522.27,631q-5.57-18.3-5.55-40.8v-85.8q0-24.6,5.55-42.9t19.8-28.35q14.23-10,40-10.05,22.78,0,36.15,8.4a47,47,0,0,1,19.2,24q5.85,15.6,5.85,37.5v19.2h-32.1v-17.1a186.41,186.41,0,0,0-1.35-23.85q-1.35-10.35-7.35-16.05t-20.1-5.7q-14.4,0-21,6.15T552.87,473a154.4,154.4,0,0,0-2,26.25v96.3q0,18.3,3,28.95t9.9,15.15q6.9,4.5,18.6,4.5,13.79,0,19.8-6.15t7.5-16.95a187.16,187.16,0,0,0,1.5-25.2v-18h32.1v18q0,22.2-5.4,39.15t-18.6,26.4Q606.11,670.89,582.12,670.89Z" transform="translate(-55 -336)"/><path class="cls-3" d="M733,670.89q-21,0-34.95-9A56.72,56.72,0,0,1,676.92,637q-7.2-15.9-8.4-36.9l30-8.1a134.81,134.81,0,0,0,4.05,24.9q3.15,12,10.35,19.65t20.1,7.65q13.18,0,20-7.35t6.75-21.15q0-16.5-7.5-26.55a140.12,140.12,0,0,0-18.9-20.25l-40.8-36q-12-10.5-17.7-22.95t-5.7-30.75q0-26.7,15.3-41.4t41.7-14.7a78.24,78.24,0,0,1,25.35,3.75,44.58,44.58,0,0,1,18.3,11.55A56.88,56.88,0,0,1,781.47,458a111.92,111.92,0,0,1,5.85,27.75l-28.8,7.8a119.48,119.48,0,0,0-3.6-22,32.84,32.84,0,0,0-9.45-16.2q-6.75-6.15-19.35-6.15t-19.65,6.75q-7.07,6.75-7.05,19.95,0,11.1,3.75,18.3t12.15,14.7l41.1,36a128.91,128.91,0,0,1,24.3,28.65q10.49,16.65,10.5,39.45,0,18-7.5,31a50.64,50.64,0,0,1-20.55,20Q750.12,670.89,733,670.89Z" transform="translate(-55 -336)"/></svg>